<svg width="242" height="58" viewBox="0 0 242 58" fill="none" xmlns="http://www.w3.org/2000/svg">
<path d="M-4.70778e-07 33.3704V0L14.8187 0C17.2594 23.7105 5.95652 32.1263 -4.70778e-07 33.3704Z" fill="#068E44"/>
<path d="M-4.70778e-07 57.7396C21.3563 47.2015 25.86 17.1975 28.1119 0L52.737 0C51.3523 20.1576 45.5244 33.3348 38.2163 41.9325C55.0167 39.8249 58.3837 51.5924 57.9671 57.7396L41.4051 58C41.3946 57.9175 41.3944 57.8307 41.4051 57.7396C41.7537 54.7538 39.4245 45.9575 38.2163 41.9325C22.5216 60.3968 -4.70778e-07 57.7396 -4.70778e-07 57.7396Z" fill="#068E44"/>
<path d="M101.08 18.12H108.2L98.16 30.28L108.56 43H101.36L91.24 30.28L101.08 18.12ZM84.28 18.12H90.6V43H84.28V18.12ZM118.96 35.72H128.48L123.72 22.04L118.96 35.72ZM131 43L129.28 38.08H118.12L116.4 43H110.12L119.64 18.12H127.8L137.36 43H131ZM141.748 18.12H148.388V43H141.748V18.12ZM174.977 18.12V20.48H166.817V43H160.377V20.48H152.297V18.12H174.977ZM185.257 40.64H198.177V43H178.577V18.12H197.657V20.48H185.257V29.08H196.017V31.44H185.257V40.64ZM219.83 18.12H226.95L216.91 30.28L227.31 43H220.11L209.99 30.28L219.83 18.12ZM203.03 18.12H209.35V43H203.03V18.12ZM231.67 18.12H238.31V43H231.67V18.12Z" fill="#068E44"/>
</svg>
