<svg width="134" height="133" viewBox="0 0 134 133" fill="none" xmlns="http://www.w3.org/2000/svg">
<path d="M1.52588e-05 76V0L34 0C39.6 54 13.6667 73.1667 1.52588e-05 76Z" fill="#068E44"/>
<path d="M1.52588e-05 131.5C49 107.5 59.3334 39.1667 64.5 0L121 0C117.823 45.9082 104.451 75.919 87.6838 95.5C126.231 90.7 133.956 117.5 133 131.5L95 132.093C94.976 131.905 94.9756 131.708 95 131.5C95.8 124.7 90.4559 104.667 87.6838 95.5C51.6737 137.552 1.52588e-05 131.5 1.52588e-05 131.5Z" fill="#068E44"/>
</svg>
