<svg width="138" height="186" viewBox="0 0 138 186" fill="none" xmlns="http://www.w3.org/2000/svg">
<path d="M4.00002 76V0L38 0C43.6 54 17.6667 73.1667 4.00002 76Z" fill="#068E44"/>
<path d="M4.00002 131.5C53 107.5 63.3334 39.1667 68.5 0L125 0C121.823 45.9082 108.451 75.919 91.6838 95.5C130.231 90.7 137.956 117.5 137 131.5L99 132.093C98.976 131.905 98.9756 131.708 99 131.5C99.8 124.7 94.4559 104.667 91.6838 95.5C55.6737 137.552 4.00002 131.5 4.00002 131.5Z" fill="#068E44"/>
<path d="M17.068 152.852H23.12L14.586 163.188L23.426 174H17.306L8.704 163.188L17.068 152.852ZM2.788 152.852H8.16V174H2.788V152.852ZM32.2663 167.812H40.3583L36.3123 156.184L32.2663 167.812ZM42.5003 174L41.0383 169.818H31.5523L30.0903 174H24.7523L32.8443 152.852H39.7803L47.9063 174H42.5003ZM51.6362 152.852H57.2802V174H51.6362V152.852ZM79.8801 152.852V154.858H72.9441V174H67.4701V154.858H60.6021V152.852H79.8801ZM88.6183 171.994H99.6003V174H82.9403V152.852H99.1583V154.858H88.6183V162.168H97.7643V164.174H88.6183V171.994ZM118.006 152.852H124.058L115.524 163.188L124.364 174H118.244L109.642 163.188L118.006 152.852ZM103.726 152.852H109.098V174H103.726V152.852ZM128.07 152.852H133.714V174H128.07V152.852Z" fill="#068E44"/>
</svg>
