<svg width="800" height="800" viewBox="0 0 800 800" fill="none" xmlns="http://www.w3.org/2000/svg">
<g clip-path="url(#clip0_91_6)">
<path d="M325 800C317.099 800.04 309.374 797.668 302.858 793.201C296.341 788.733 291.343 782.384 288.531 775L226.281 613.125C225.021 609.863 223.092 606.901 220.619 604.428C218.146 601.955 215.184 600.026 211.922 598.766L50.0001 536.469C42.6242 533.638 36.2801 528.637 31.805 522.126C27.3299 515.615 24.9343 507.9 24.9343 500C24.9343 492.099 27.3299 484.385 31.805 477.874C36.2801 471.363 42.6242 466.362 50.0001 463.531L211.875 401.281C215.137 400.02 218.099 398.092 220.572 395.619C223.045 393.146 224.974 390.184 226.234 386.922L288.531 225C291.362 217.624 296.363 211.28 302.874 206.805C309.385 202.33 317.1 199.934 325 199.934C332.901 199.934 340.615 202.33 347.126 206.805C353.637 211.28 358.638 217.624 361.469 225L423.719 386.875C424.98 390.137 426.908 393.099 429.381 395.572C431.854 398.045 434.816 399.974 438.078 401.234L599.016 463.156C606.692 466.001 613.305 471.143 617.954 477.881C622.604 484.619 625.064 492.626 625 500.812C624.881 508.575 622.434 516.124 617.977 522.481C613.52 528.838 607.258 533.711 600 536.469L438.125 598.719C434.863 599.979 431.901 601.908 429.428 604.381C426.955 606.854 425.026 609.816 423.766 613.078L361.469 775C358.657 782.384 353.659 788.733 347.142 793.201C340.626 797.668 332.901 800.04 325 800Z" fill="url(#paint0_linear_91_6)"/>
<path d="M137.5 275C132.868 275 128.345 273.596 124.526 270.974C120.708 268.352 117.773 264.635 116.109 260.312L89.7656 191.812C89.1946 190.314 88.3134 188.954 87.1798 187.82C86.0461 186.687 84.6856 185.805 83.1875 185.234L14.6875 158.891C10.3653 157.226 6.64869 154.291 4.02735 150.473C1.40602 146.655 0.00292969 142.132 0.00292969 137.5C0.00292969 132.868 1.40602 128.345 4.02735 124.527C6.64869 120.709 10.3653 117.774 14.6875 116.109L83.1875 89.7656C84.6841 89.192 86.0433 88.3099 87.1766 87.1766C88.3099 86.0433 89.192 84.6841 89.7656 83.1875L115.875 15.2968C117.347 11.3 119.881 7.77997 123.204 5.11509C126.527 2.45022 130.513 0.741235 134.734 0.171826C139.802 -0.444264 144.931 0.649151 149.307 3.27869C153.683 5.90823 157.056 9.92338 158.891 14.6875L185.234 83.1875C185.808 84.6841 186.69 86.0433 187.823 87.1766C188.957 88.3099 190.316 89.192 191.812 89.7656L260.312 116.109C264.635 117.774 268.351 120.709 270.973 124.527C273.594 128.345 274.997 132.868 274.997 137.5C274.997 142.132 273.594 146.655 270.973 150.473C268.351 154.291 264.635 157.226 260.312 158.891L191.812 185.234C190.314 185.805 188.954 186.687 187.82 187.82C186.687 188.954 185.805 190.314 185.234 191.812L158.891 260.312C157.227 264.635 154.292 268.352 150.474 270.974C146.655 273.596 142.132 275 137.5 275Z" fill="url(#paint1_linear_91_6)"/>
<path d="M625 400C619.947 399.999 615.013 398.466 610.849 395.604C606.684 392.742 603.485 388.685 601.672 383.969L565.984 291.203C565.357 289.569 564.392 288.084 563.154 286.846C561.916 285.608 560.431 284.643 558.797 284.016L466.031 248.328C461.318 246.512 457.266 243.311 454.408 239.147C451.55 234.983 450.02 230.051 450.02 225C450.02 219.949 451.55 215.017 454.408 210.853C457.266 206.689 461.318 203.488 466.031 201.672L558.797 165.984C560.431 165.357 561.916 164.392 563.154 163.154C564.392 161.916 565.357 160.432 565.984 158.797L601.406 66.6876C603.023 62.3318 605.791 58.4958 609.414 55.5877C613.038 52.6795 617.382 50.8079 621.984 50.1719C627.515 49.5025 633.11 50.6993 637.883 53.5725C642.655 56.4457 646.332 60.8306 648.328 66.0313L684.016 158.797C684.643 160.432 685.608 161.916 686.846 163.154C688.084 164.392 689.568 165.357 691.203 165.984L783.969 201.672C788.682 203.488 792.734 206.689 795.592 210.853C798.45 215.017 799.98 219.949 799.98 225C799.98 230.051 798.45 234.983 795.592 239.147C792.734 243.311 788.682 246.512 783.969 248.328L691.203 284.016C689.568 284.643 688.084 285.608 686.846 286.846C685.608 288.084 684.643 289.569 684.016 291.203L648.328 383.969C646.515 388.685 643.316 392.742 639.151 395.604C634.987 398.466 630.053 399.999 625 400Z" fill="url(#paint2_linear_91_6)"/>
</g>
<defs>
<linearGradient id="paint0_linear_91_6" x1="324.968" y1="199.934" x2="324.968" y2="800" gradientUnits="userSpaceOnUse">
<stop stop-color="#19ADDC"/>
<stop offset="1" stop-color="#66FF7E"/>
</linearGradient>
<linearGradient id="paint1_linear_91_6" x1="137.5" y1="0.00427246" x2="137.5" y2="275" gradientUnits="userSpaceOnUse">
<stop stop-color="#19ADDC"/>
<stop offset="1" stop-color="#66FF7E"/>
</linearGradient>
<linearGradient id="paint2_linear_91_6" x1="625" y1="49.9907" x2="625" y2="400" gradientUnits="userSpaceOnUse">
<stop stop-color="#19ADDC"/>
<stop offset="1" stop-color="#66FF7E"/>
</linearGradient>
<clipPath id="clip0_91_6">
<rect width="800" height="800" fill="white"/>
</clipPath>
</defs>
</svg>
