<svg width="213" height="215" viewBox="0 0 213 215" fill="none" xmlns="http://www.w3.org/2000/svg">
<path d="M80 66.5037L93 40.0037H113.5L106 55.0037L122 56.5037L103 88.5037H100.5V67.5037L80 66.5037Z" fill="white" stroke="white" stroke-width="12"/>
<path d="M30.0533 73.66C30.0353 73.7754 30.0176 73.8899 30 74.0037C30 73.9014 30.018 73.7867 30.0533 73.66C32.5801 57.385 38.2197 25.6065 41 26.0037C44.5 26.5037 55 40.0037 56.5 48.0037C47.9489 55.1027 31.12 69.8236 30.0533 73.66Z" fill="white"/>
<path d="M30 74.0037C32.5 57.837 38.2 25.6037 41 26.0037C44.5 26.5037 55 40.0037 56.5 48.0037C47.6667 55.337 30 70.8037 30 74.0037Z" stroke="white" stroke-width="12"/>
<path d="M179.447 73.66C179.465 73.7754 179.482 73.8899 179.5 74.0037C179.5 73.9014 179.482 73.7867 179.447 73.66C176.92 57.385 171.28 25.6065 168.5 26.0037C165 26.5037 154.5 40.0037 153 48.0037C161.551 55.1027 178.38 69.8236 179.447 73.66Z" fill="white"/>
<path d="M179.5 74.0037C177 57.837 171.3 25.6037 168.5 26.0037C165 26.5037 154.5 40.0037 153 48.0037C161.833 55.337 179.5 70.8037 179.5 74.0037Z" stroke="white" stroke-width="12"/>
<path d="M165.774 95.4485C114.409 119.978 66.6646 105.669 49.2134 95.4485C31.4329 91.8294 26.3293 115.722 26 128.121C28.3707 174.365 81.3171 185.926 107.494 185.926C168.343 187.937 186.518 148.227 188 128.121C186.024 97.1575 172.36 93.4379 165.774 95.4485Z" stroke="white" stroke-width="12"/>
<path d="M115.279 165.528C106.858 160.557 98.9648 162.819 94.562 165.512C93.3074 166.279 93.0632 167.945 93.9231 169.138C102.775 181.421 111.548 175.417 116.052 169.236C116.947 168.008 116.588 166.3 115.279 165.528Z" fill="white" stroke="white" stroke-width="12"/>
<path d="M54.4873 123.389C62.4693 121.899 77.9078 123.891 75.8052 143.776C67.2391 144.893 50.9829 142.38 54.4873 123.389Z" fill="white" stroke="white" stroke-width="12"/>
<path d="M159.513 123.389C151.531 121.899 136.092 123.891 138.195 143.776C146.761 144.893 163.017 142.38 159.513 123.389Z" fill="white" stroke="white" stroke-width="12"/>
<path d="M86.4588 33.8946C56.952 1.80214 33.3031 4.98247 25.1671 10.5842C5.64053 28.3651 4.73652 99.6696 6.72533 133.099C9.7628 194.682 76.6955 209.355 109.782 208.994C177.474 208.56 201.268 158.217 204.703 133.099C215.91 29.2262 182.464 10.5842 182.464 10.5842C157.731 0.175764 133.829 21.7876 124.969 33.8946H86.4588Z" stroke="white" stroke-width="12"/>
</svg>
